<svg id="Capa_1" data-name="Capa 1" xmlns="http://www.w3.org/2000/svg" viewBox="0 0 162 162"><title>LOGO ALA</title><g id="LOGO_TRASPARENCIA" data-name="LOGO TRASPARENCIA" style="opacity:0.5"><path d="M114.17,92.41c-1.51-2-3.13-4-4.71-6-.34-.44-1.19-1.22-1-1.87A8.08,8.08,0,0,1,110.39,82c1.39-1.6,3-3.41,3.58-5.51a2.93,2.93,0,0,0-.08-2,2.06,2.06,0,0,0-.91-1c-.15-.09-1.15-.34-.55-.22a23.42,23.42,0,0,0-3.84-.18l-5.5-.11q-6.89-.1-13.76-.08c.3-1.8.2-3.56-1.45-4.75a4.06,4.06,0,0,0-2.82-.74,11.19,11.19,0,0,1-1.64.06c-.61,0-1-.69-1.51-1a5.93,5.93,0,0,0-3.25-.92c-.46,0-1.23.3-1.41-.12a5.12,5.12,0,0,0-7.19-2.57c-2.15,1.09-3.3,3.34-3.94,5.56C66,69,66,69.73,65.5,70a4.5,4.5,0,0,0-1.17,1.09c-.32.43-.67.82-1,1.26a4.79,4.79,0,0,0-.49.92c-.2.57-.39.4-1,.43-2.68.14-5.36.28-8,.44-1.83.12-4,0-5.77.46l.23-.06c-2.65.55-1.7,3.56-.69,5.08A23.22,23.22,0,0,0,50.48,83c.67.68,2.2,1.71,2.35,2.72s-1.06,2.05-1.52,2.68c-1,1.34-2,2.66-2.91,4s-2.29,3-2.39,4.7c-.15,2.5,2.78,2.62,4.58,2.62,2.73,0,5.48-.3,8.21-.45,6.72-.36,13.43-.65,20.15-.81,17.46-.41,32.73.39,35.4-.38a2,2,0,0,0,1.56-1.8c.47-1.33-1-2.92-1.74-3.87C113.17,91.05,115.59,94.32,114.17,92.41Z" style="fill:#00953b"/><path d="M107.4,86.22c-2.15-2.77-.17-3.56,2.71-7.24s2.1-4.76,1.31-4.81c0,0,0,0,0,0-5.28-.16-14.12-.35-24.34-.27.47-2.69.48-2.77.48-2.88a2.53,2.53,0,0,0-.74-1.89,2.62,2.62,0,0,0-2.75-.6h-.25a12.63,12.63,0,0,0-1.6-.07c-.15,0-.29,0-.44,0a3.87,3.87,0,0,0-.65-.87,4,4,0,0,0-2.18-1,5.22,5.22,0,0,0-1-.06,6.87,6.87,0,0,0-2.14.44l-.11,0a4.37,4.37,0,0,0-.32-1.5,3.75,3.75,0,0,0-1.72-1.91A3.63,3.63,0,0,0,72,63.19a4.09,4.09,0,0,0-1.18.22A5,5,0,0,0,68,65.87a11.85,11.85,0,0,0-.9,2.12,13.16,13.16,0,0,0-.49,2.14l0,.27-.19,0a2.9,2.9,0,0,0-1.75,1.61,2.79,2.79,0,0,0-.81,1,2.66,2.66,0,0,0-.26,1.51c-6.39.3-11.9.64-15.45.88.09,0,.12,0,.07,0-.79.11-1.52,1.24,1.61,4.74S55,84.36,53,87.28s-6.29,8.11-6.05,9.57c.07.45.2,1,3.84.91s8.35-.5,13.65-.75h.08l.34,0c5.45-.25,11.47-.46,17.42-.56,8.9-.14,17-.06,23.19.07a15.06,15.06,0,0,1,1.6,0c8.32.11,6.62-.57,7-1.13S109.55,89,107.4,86.22Z" style="fill:#76bc21"/><path d="M103.84,76.21c2.44,0,4.56.1,6.28.14a.51.51,0,1,0,0-1c-2-.06-4.54-.12-7.49-.17A2.52,2.52,0,0,1,103.84,76.21Z" style="fill:#fde021"/><path d="M49.07,77.11a.51.51,0,0,0,.51.48h0c3-.2,7.19-.46,12.08-.7a12.21,12.21,0,0,1,2.05-1.12c-5.79.27-10.81.58-14.19.8A.51.51,0,0,0,49.07,77.11Z" style="fill:#fde021"/><path d="M86.71,76.12h1a11.62,11.62,0,0,1,1.87-1H86.89Q86.8,75.58,86.71,76.12Z" style="fill:#fde021"/><path d="M50.68,95.53q-1,0-1.65,0a.52.52,0,0,0-.54.48.5.5,0,0,0,.47.54c.32,0,.69,0,1.12,0h.66c2.66-.17,5.76-.35,9.15-.53a7.08,7.08,0,0,1-1.35-.94C55.65,95.22,53,95.38,50.68,95.53Z" style="fill:#fde021"/><path d="M83.48,94.18a2.9,2.9,0,0,1-.6,1l2.78,0a7.3,7.3,0,0,1-1.34-1Z" style="fill:#fde021"/><path d="M111.73,94.17c-.74,0-1.74.07-3,.07h-1.67c-.85,0-1.37,0-1.72,0l-3.69-.07a2.85,2.85,0,0,1-1,1c1.56,0,3.11,0,4.67.08h.05c.32,0,.83,0,1.64,0h1.69c1.25,0,2.27,0,3-.08a.5.5,0,0,0,.47-.54A.5.5,0,0,0,111.73,94.17Z" style="fill:#fde021"/><path d="M74.93,75.67c-.18-.07-.63-.21-1.22-.38l-.5-.15c-.66-.21-1.22-.38-1.75-.52a13.3,13.3,0,0,0-1.69-.38l-.4-.08a9.21,9.21,0,0,0-.93-.15h-.37a2.3,2.3,0,0,0-.54-1.14.47.47,0,0,0-.45-.14.43.43,0,0,0-.27.34.81.81,0,0,0,0,.17v0a.26.26,0,0,0,.2.2.32.32,0,0,0,.31-.11.3.3,0,0,0,0-.1,2.23,2.23,0,0,1,.32.8.61.61,0,0,0-.14.07,2.06,2.06,0,0,0-1.12-.3.49.49,0,0,0-.42.23.4.4,0,0,0,.06.42,1.06,1.06,0,0,0,.11.13l0,0a.2.2,0,0,0,.13,0,.3.3,0,0,0,.15,0,.32.32,0,0,0,.13-.29.3.3,0,0,0,0-.1,2,2,0,0,1,.75.26c-.33.87.26,1.27,1,1.31a13.83,13.83,0,0,1,1.67-.13c1.74.25,4.29.92,4.58,1,.91.17,1.92.37,1.81-.13C76.28,76.31,75.54,75.91,74.93,75.67Z" style="fill:#fde021"/><path d="M78.52,68.92a3.73,3.73,0,0,0-1.86.26,5.31,5.31,0,0,0-.83.37c-.25.13-.52.27-.78.43-.53.31-1,.65-1.55,1-.07.06-.18.13-.31.22a15.26,15.26,0,0,0-2.64,2.07l0,0a.6.6,0,0,0-.07.63.48.48,0,0,0,.45.22.68.68,0,0,0,.44-.19,27.91,27.91,0,0,1,2.43-1.84l.17-.12q.7-.5,1.44-.93l.79-.45a5.19,5.19,0,0,1,.71-.35,3.49,3.49,0,0,1,1-.27,1.44,1.44,0,0,1,.47.06,1.58,1.58,0,0,1,.31.13,2.07,2.07,0,0,1-.41.36l0,0-.33.21-.13.08-.27.16a2.15,2.15,0,0,0-.67.75,1.25,1.25,0,0,0-.08,1,.94.94,0,0,0,.36.46l.12.11-.25.06c-.26,0-.55.1-.84.13a13,13,0,0,1-1.4.08.51.51,0,0,0,0,.47,1,1,0,0,0,.8.64,10.58,10.58,0,0,0,1.68-.22l.1,0a1.41,1.41,0,0,0,.84-.39,1,1,0,0,0,.25-1,1.32,1.32,0,0,0-.32-.44,1,1,0,0,1-.22-.24.2.2,0,0,1,0-.16.73.73,0,0,1,.17-.19,3.16,3.16,0,0,1,.48-.36l.16-.11.2-.13a4.3,4.3,0,0,0,.57-.41,1.26,1.26,0,0,0,.43-.74v0a1.27,1.27,0,0,0-.38-1A1.85,1.85,0,0,0,78.52,68.92Z" style="fill:#fde021"/><path d="M68.91,73.25a.36.36,0,0,0,.38.27h0a.64.64,0,0,0,.42-.24,1.13,1.13,0,0,0,.32-.56c0-.27,0-.56,0-.85a11.84,11.84,0,0,1,.16-1.68,9.48,9.48,0,0,1,.45-1.63,5.77,5.77,0,0,1,.76-1.47c.07-.1.26-.36.44-.38h0a.29.29,0,0,1,.28.2,1,1,0,0,1,0,.64L72,67.8a4.73,4.73,0,0,0-.17.6,1.28,1.28,0,0,0,.22,1,1,1,0,0,0,.21.17l.14.07.06,0c.09,0,.1.08.1.08a.66.66,0,0,1,0,.28l0,.41c0,.1,0,.23.13.17a5.19,5.19,0,0,1,.61-.36l.39-.22a.26.26,0,0,0,0-.11,1.39,1.39,0,0,0,0-.51,1,1,0,0,0-.32-.5,1,1,0,0,0-.19-.12l-.13-.09c-.11-.09-.08-.28,0-.41a1.08,1.08,0,0,1,.08-.19l.09-.2a2,2,0,0,0,0-1.46,1.51,1.51,0,0,0-.66-.76,1.32,1.32,0,0,0-1,0A2.56,2.56,0,0,0,70.1,67a8,8,0,0,0-.7,1.66A10.65,10.65,0,0,0,69,70.39c0,.11,0,.22,0,.33a16.43,16.43,0,0,0-.08,1.8c0,.23,0,.46,0,.66Z" style="fill:#fde021"/><path d="M103.09,77.75a1.2,1.2,0,0,0-.88-.81l-.51-.11-2.94-.56A17.47,17.47,0,0,0,95,75.91a11.08,11.08,0,0,0-10.58,7.56c2.08-11.74,2.08-11.83,2.09-11.9a1.23,1.23,0,0,0-1.78-1.15,2.93,2.93,0,0,1-.47,0H84c-.36,0-.77-.06-1.22-.06a4,4,0,0,0-3.1,1.12c-.68.72-1.06,2.38-1.49,5l-1.5,8.26h0a2,2,0,0,0-.51-1.48,2.18,2.18,0,0,0-.6-.43A5.32,5.32,0,0,0,76.77,80a2.18,2.18,0,0,1,.14-.48,1.15,1.15,0,0,0,.22-1.07,1.19,1.19,0,0,0-.87-.81l-.6-.13L72.8,77a17.47,17.47,0,0,0-3.73-.36c-7.83.22-11.39,6.53-11.39,12.29,0,4.53,2.59,7.24,6.93,7.24h.29a6.91,6.91,0,0,0,4.78-1.9v.08a1.41,1.41,0,0,0,1.46,1.27l2.47-.07a1.44,1.44,0,0,0,1.44-1.25l.2-1.14.29,1.09A1.4,1.4,0,0,0,77,95.45h0l4.13-.12a1.43,1.43,0,0,0,1.44-1.25c.39-2.21.75-4.19,1.06-6v.11c0,4.53,2.6,7.24,6.93,7.24h.3a6.91,6.91,0,0,0,4.77-1.91v.08a1.42,1.42,0,0,0,1.47,1.27l2.46-.07A1.44,1.44,0,0,0,101,93.56l1.65-9.45V84a1.88,1.88,0,0,0-.51-1.47,1.84,1.84,0,0,0-.6-.43,5.38,5.38,0,0,0,1.17-2.82,2.41,2.41,0,0,1,.14-.48A1.17,1.17,0,0,0,103.09,77.75Z" style="fill:#ee7203"/><path d="M101.63,77.37l-.64-.14-2.78-.52a16.15,16.15,0,0,0-3.52-.34c-7.59.21-10.42,6.56-10.42,11.28,0,4,2.3,6.34,6.19,6.23a6,6,0,0,0,4.51-2c.89-.94,1-.81,1.17,0l.13,1.08a.43.43,0,0,0,.48.4l2.43-.07a.46.46,0,0,0,.48-.42l1.64-9.42c0-.38-.11-1.13-1.47-1.09l-3.75.11c-.77,3.74-2.44,6.6-4.53,6.66a1.84,1.84,0,0,1-2-2.08c0-1.69,1.07-4.76,3.58-5.63a4.07,4.07,0,0,1,1.31-.24h.32c1.9,0,4.37.62,5.28,0a3.63,3.63,0,0,0,1.31-2.62,2.38,2.38,0,0,1,.34-.94A.16.16,0,0,0,101.63,77.37Z" style="fill:#fff"/><path d="M75.68,78.11,75,78l-2.77-.53a17.57,17.57,0,0,0-3.52-.34c-7.59.22-10.42,6.57-10.42,11.29,0,4,2.29,6.34,6.19,6.23a6,6,0,0,0,4.51-2c.89-.94,1-.81,1.16,0l.14,1.08a.43.43,0,0,0,.48.4L73.23,94a.44.44,0,0,0,.47-.42l1.64-9.42c0-.38-.11-1.13-1.47-1.09l-3.75.11c-.76,3.74-2.43,6.6-4.52,6.66a1.85,1.85,0,0,1-2-2.08c0-1.7,1.06-4.76,3.57-5.63a4.13,4.13,0,0,1,1.31-.24h.32c1.91,0,4.37.62,5.29,0a3.65,3.65,0,0,0,1.3-2.62,2.37,2.37,0,0,1,.35-.94A.16.16,0,0,0,75.68,78.11Z" style="fill:#fff"/><path d="M84.83,70.78a3,3,0,0,1-1.23.12c-1.07-.09-2.62-.23-3.53.73-.54.57-.91,2.51-1.24,4.5l-3,16.29.29,1.08a.42.42,0,0,0,.48.39l4.09-.12a.44.44,0,0,0,.48-.42s3.94-22.24,4-22.37A.24.24,0,0,0,84.83,70.78Z" style="fill:#fff"/><path d="M97,92.12l.05.4,1.87,0,1.58-9.11s0-.09,0-.11-.11-.11-.47-.12l-1.56,9Z" style="fill:#fde021"/><path d="M95.33,90c-.47,0-.86.34-1.42.92A5.18,5.18,0,0,1,90,92.7a5.63,5.63,0,0,1-3.39-.85,5.24,5.24,0,0,0,3.87,1.23,5.18,5.18,0,0,0,3.93-1.77c.56-.58,1-.9,1.42-.91a.78.78,0,0,1,.35,0A.9.9,0,0,0,95.33,90Z" style="fill:#fde021"/><path d="M92.9,80.64a5.07,5.07,0,0,1,1.55-.29h.35a21.28,21.28,0,0,1,2.22.16,19,19,0,0,0,2,.13h0a1.51,1.51,0,0,0,.67-.11,3,3,0,0,0,.92-2.06c0-.07.05-.25.12-.48l-.56-.1c0,.09,0,.16,0,.2a3,3,0,0,1-.92,2,1.46,1.46,0,0,1-.67.12h0a16.8,16.8,0,0,1-2-.14C95.8,80.05,95,80,94.32,80H94a5.12,5.12,0,0,0-1.55.28c-2.85,1-4.14,4.34-4.14,6.41a2.78,2.78,0,0,0,1.24,2.47A3,3,0,0,1,88.77,87C88.76,85,90.05,81.62,92.9,80.64Z" style="fill:#fde021"/><path d="M71,92.86l0,.4L73,93.21l1.59-9.11a.2.2,0,0,0,0-.11s-.12-.11-.48-.12l-1.56,8.95Z" style="fill:#fde021"/><path d="M69.38,90.75c-.48,0-.87.33-1.42.92A5.14,5.14,0,0,1,64,93.43a5.54,5.54,0,0,1-3.39-.84,5.86,5.86,0,0,0,7.8-.54c.55-.58.94-.9,1.42-.92a1.23,1.23,0,0,1,.35.05A.9.9,0,0,0,69.38,90.75Z" style="fill:#fde021"/><path d="M74.14,78.82a3,3,0,0,1-.92,2.06,1.44,1.44,0,0,1-.67.11h0a14.93,14.93,0,0,1-2-.13,21.09,21.09,0,0,0-2.22-.16H68a4.83,4.83,0,0,0-1.55.28c-2.86,1-4.14,4.34-4.14,6.41a2.76,2.76,0,0,0,1.24,2.47,3,3,0,0,1-.76-2.09c0-2.06,1.28-5.42,4.14-6.41a5.12,5.12,0,0,1,1.55-.28h.34c.72,0,1.49.08,2.23.15a16.8,16.8,0,0,0,2,.14h0a1.87,1.87,0,0,0,.67-.11,3,3,0,0,0,.92-2.06c0-.07,0-.26.11-.48l-.55-.1C74.16,78.72,74.15,78.79,74.14,78.82Z" style="fill:#fde021"/><path d="M83.68,71.7c-.63,3.61-2.56,14.53-3.69,20.9l-3.19.09.1.39,3.57-.1c1.17-6.61,3.21-18.14,3.76-21.28h-.55Z" style="fill:#fde021"/></g></svg>