<svg id="Capa_1" data-name="Capa 1" xmlns="http://www.w3.org/2000/svg" xmlns:xlink="http://www.w3.org/1999/xlink" viewBox="0 0 380 218.86"><defs><linearGradient id="Nueva_muestra_de_degradado_1" x1="179.45" y1="162.67" x2="198.62" y2="37.09" gradientUnits="userSpaceOnUse"><stop offset="0" stop-color="#8ac919"/><stop offset="0.89" stop-color="#449836"/></linearGradient><linearGradient id="Nueva_muestra_de_degradado_1-2" x1="174.21" y1="161.87" x2="193.38" y2="36.29" xlink:href="#Nueva_muestra_de_degradado_1"/><linearGradient id="New_Gradient_Swatch_3" x1="187.79" y1="85.75" x2="175.34" y2="173.55" gradientUnits="userSpaceOnUse"><stop offset="0" stop-color="#ea8209"/><stop offset="1" stop-color="#e55619"/></linearGradient><linearGradient id="linear-gradient" x1="286.31" y1="100.3" x2="268.33" y2="218.63" gradientUnits="userSpaceOnUse"><stop offset="0" stop-color="#fde021"/><stop offset="1" stop-color="#fefefe"/></linearGradient><linearGradient id="linear-gradient-2" x1="250.67" y1="94.89" x2="232.69" y2="213.21" xlink:href="#linear-gradient"/><linearGradient id="linear-gradient-3" x1="259.71" y1="96.26" x2="241.73" y2="214.59" xlink:href="#linear-gradient"/><linearGradient id="linear-gradient-4" x1="151.76" y1="79.86" x2="133.78" y2="198.18" xlink:href="#linear-gradient"/><linearGradient id="linear-gradient-5" x1="116.12" y1="74.43" x2="98.14" y2="192.77" xlink:href="#linear-gradient"/><linearGradient id="linear-gradient-6" x1="125.16" y1="75.81" x2="107.18" y2="194.14" xlink:href="#linear-gradient"/><linearGradient id="linear-gradient-7" x1="187.03" y1="85.22" x2="169.04" y2="203.54" xlink:href="#linear-gradient"/><linearGradient id="linear-gradient-8" x1="132.68" y1="74.06" x2="135.51" y2="64.47" xlink:href="#linear-gradient"/><linearGradient id="linear-gradient-9" x1="147.91" y1="63.17" x2="184.31" y2="33.09" xlink:href="#linear-gradient"/><linearGradient id="linear-gradient-10" x1="128.79" y1="40.03" x2="165.19" y2="9.95" xlink:href="#linear-gradient"/></defs><title>LOGO ALA</title><g id="LOGO_CON_LEYENDA" data-name="LOGO CON LEYENDA"><path d="M363.16,160.49c-8.29-10.75-16.7-21.4-25.1-32.07-1.85-2.35-6.33-6.54-5.3-10,1.49-5,6.89-9.44,10.23-13.25,7.43-8.51,16.13-18.15,19.1-29.35a15.91,15.91,0,0,0-.42-10.55,11.54,11.54,0,0,0-4.86-5.36c-.79-.44-6.16-1.78-2.95-1.16-6.59-1.27-13.73-.78-20.44-.94q-14.66-.36-29.33-.59-36.64-.6-73.29-.43c1.64-9.6,1.07-19-7.7-25.3a21.74,21.74,0,0,0-15-4,57.49,57.49,0,0,1-8.71.36c-3.24-.11-5.29-3.69-8.07-5.5A31.74,31.74,0,0,0,174,17.51c-2.41,0-6.5,1.6-7.46-.66A28.86,28.86,0,0,0,160.73,8c-8.52-8.82-21.8-10.28-32.57-4.85C116.74,9,110.6,21,107.18,32.78c-.83,2.89-.76,6.94-3.3,8.54a23.18,23.18,0,0,0-6.23,5.78c-1.69,2.27-3.57,4.4-5.18,6.72a21.93,21.93,0,0,0-2.58,4.91c-1.11,3-2.09,2.13-5.14,2.28q-21.4,1.08-42.81,2.37c-9.76.59-21.34-.31-30.77,2.42.43-.09.85-.2,1.26-.32C-1.69,68.4,3.36,84.42,8.74,92.53c4.31,6.49,9.68,12.27,15.14,17.81,3.57,3.63,11.7,9.13,12.51,14.49.71,4.64-5.64,10.9-8.11,14.28-5.17,7.11-10.47,14.14-15.51,21.35S.57,176.41,0,185.47c-.57,9.64,7,21.77,13.57,28.18,6.19,6,13,5.39,20.87,4.95,17.69-1,35.4-1.77,53.1-2.57,37.37-1.69,74.83-3.94,112.25-4.2,35.42-.24,70.86,0,106.28.13,9,0,18.1.06,27.15.12,11.95.09,24,1.19,35.9-.28,5.82-.72,10.12-1.87,10.7-8.05,1.43-15-7.94-31.92-16.69-43.26Z" style="fill:#00953b"/><path d="M325.26,182.14c38.55.59,35.28-3,37.09-6s-23.83-33.77-35.29-48.55-.9-19,14.48-38.6,11.16-25.34,6.93-25.63c-.21,0-.14,0,.15-.07-32.5-1-90.24-2.19-155.42-1.15-72,1.15-145.92,5.59-182,8,.49,0,.64,0,.38.06-4.22.58-8.08,6.59,8.61,25.25s27.55,22.19,17,37.75S3.74,176.41,5,184.15c.39,2.41,1,5.33,20.45,4.89C64.66,186.55,129.67,183,193.2,182c47.4-.76,90.86-.33,123.55.34A75.61,75.61,0,0,1,325.26,182.14Z" style="fill:url(#Nueva_muestra_de_degradado_1)"/><path d="M19.07,81.55a2.71,2.71,0,0,1-.17-5.41c35.84-2.34,106.16-6.43,174.4-7.52,16.56-.27,33.73-.4,51-.4,40.41,0,75.26.73,97.37,1.35a2.71,2.71,0,0,1-.15,5.42c-22.08-.62-56.87-1.35-97.22-1.35-17.27,0-34.41.13-50.94.39C125.26,75.12,55,79.21,19.25,81.55Z" style="fill:#fde021"/><path d="M21.72,182.58c-2.25,0-4.25-.06-5.93-.18a2.71,2.71,0,0,1,.36-5.4c2.31.15,5.23.2,8.8.12C67.23,174.43,130.68,171,193,170c16.67-.26,33.93-.4,51.32-.4,23.65,0,47.85.25,71.94.73,1.88-.16,4.65-.21,9.15-.14q4.86.06,8.88.06c6.57,0,11.9-.13,15.85-.39a2.71,2.71,0,0,1,.35,5.41c-4.06.26-9.51.4-16.2.4-2.71,0-5.68,0-8.95-.06-4.36-.07-7.09,0-8.75.13h-.3c-24.1-.49-48.31-.73-72-.73-17.36,0-34.59.13-51.24.4-62.24,1-125.63,4.4-167.85,7.08h-.11C23.92,182.56,22.78,182.58,21.72,182.58Z" style="fill:#fde021"/><path d="M309.43,77.31a13.27,13.27,0,0,0-10-9.38l-3.54-.75-15.1-2.87a100.85,100.85,0,0,0-21.45-2c-17.88.51-32.36,6.62-43.31,16,5.39-30.62,5.42-31.09,5.44-31.86a13.58,13.58,0,0,0-4-10.06,13.93,13.93,0,0,0-10.18-4,14.62,14.62,0,0,0-4.43.85h-.2a9.84,9.84,0,0,1-1.12,0,74,74,0,0,0-8.52-.36c-.82,0-1.6.09-2.38.16a19.49,19.49,0,0,0-3.48-4.61,21.33,21.33,0,0,0-11.56-5.56,27.28,27.28,0,0,0-5.22-.34A35.12,35.12,0,0,0,159,24.84l-.61.25a22.48,22.48,0,0,0-1.72-8,20.07,20.07,0,0,0-9.16-10.17,18.74,18.74,0,0,0-9.2-2.06A22.33,22.33,0,0,0,132,6c-4.19,1.38-10.17,4.77-14.86,13.11a60.4,60.4,0,0,0-4.81,11.32,70.45,70.45,0,0,0-2.61,11.4c-.07.48-.13,1-.19,1.44-.32.08-.64.13-1,.24a15.37,15.37,0,0,0-9.33,8.6,15,15,0,0,0-4.35,5.29,14.68,14.68,0,0,0,.6,14c-28.17,11.49-42.77,40.08-42.75,68,0,28.49,18,46.39,45.85,45.59a45.77,45.77,0,0,0,23-6.5,15.08,15.08,0,0,0,10.45,3.57l12.93-.37a16.07,16.07,0,0,0,9.16-3.1,15.34,15.34,0,0,0,9.09,2.53l21.78-.62a15.54,15.54,0,0,0,15.25-13.34c.07-.42.15-.83.22-1.24,8,10,20.57,15.59,36.33,15.14,8.67-.24,29.4-2.82,33.5-2.93l12.92-.37a15.56,15.56,0,0,0,15.26-13.38l8.82-50.7,0-.74a17.54,17.54,0,0,0-3.53-11.82,44.29,44.29,0,0,0,3.74-12.48c0-.08,0-.2.07-.33A13.61,13.61,0,0,0,309.43,77.31Z" style="fill:url(#Nueva_muestra_de_degradado_1-2)"/><path d="M304.1,82.45a6.33,6.33,0,0,0-4.65-4.33l-2.76-.59-15.64-3a95,95,0,0,0-19.88-1.9c-30.27.86-48.57,18.77-56.33,40.25,11.06-62.53,11.08-63,11.1-63.41a6.54,6.54,0,0,0-1.85-4.73,6.68,6.68,0,0,0-4.76-2,6.45,6.45,0,0,0-2.87.67,13,13,0,0,1-2.48.19c-.46,0-.92,0-1.44-.06-1.93-.16-4.11-.35-6.48-.35-7.37,0-12.78,2-16.54,6s-5.67,12.72-8,26.68l-8,44.05v0a10.22,10.22,0,0,0-5.93-10.14c4.43-4.65,5.59-11.3,6.23-15a13.06,13.06,0,0,1,.74-2.56,6.1,6.1,0,0,0,1.2-5.72,6.32,6.32,0,0,0-4.65-4.32L158,81.36l-15.19-2.89a95,95,0,0,0-19.88-1.9C81.18,77.76,62.19,111.33,62.21,142c0,24.15,13.82,38.57,36.92,38.57l1.57,0c10.21-.29,18.35-3.53,25.43-10.13l.05.41a7.56,7.56,0,0,0,7.8,6.78l13.14-.37a7.7,7.7,0,0,0,7.68-6.68l1.06-6.08,1.56,5.81a7.45,7.45,0,0,0,7.68,6.39h.05l22-.63a7.68,7.68,0,0,0,7.67-6.65c2.08-11.76,4-22.34,5.65-31.9,0,.19,0,.38,0,.57,0,24.15,13.81,38.57,36.91,38.57l1.57,0c10.21-.3,18.35-3.53,25.43-10.13l.06.41a7.56,7.56,0,0,0,7.8,6.78l13.14-.37a7.69,7.69,0,0,0,7.67-6.68l8.76-50.35,0-.43a10.37,10.37,0,0,0-2.73-7.85,10.49,10.49,0,0,0-3.2-2.29c4.43-4.65,5.59-11.3,6.24-15a13.48,13.48,0,0,1,.73-2.55A6.12,6.12,0,0,0,304.1,82.45Z" style="fill:url(#New_Gradient_Swatch_3)"/><path d="M296.35,80.41l-3.44-.74-14.77-2.81a90.06,90.06,0,0,0-18.76-1.81c-40.42,1.15-55.51,35-55.5,60.09,0,21.5,12.22,33.79,33,33.2,10-.28,17.47-3.75,24-10.8,4.73-5,5.46-4.31,6.19,0l.73,5.76a2.22,2.22,0,0,0,2.55,2.09l12.93-.37a2.38,2.38,0,0,0,2.55-2.23l8.72-50.17c.12-2-.58-6-7.82-5.8l-20,.57c-4.08,20-13,35.18-24.08,35.49-6.56.19-10.56-4-10.57-11.07,0-9,5.67-25.39,19.05-30a21.88,21.88,0,0,1,7-1.27l1.71,0c10.16,0,23.28,3.29,28.16.28s6.15-9.38,6.95-14c.31-1.78,1.11-4.26,1.84-5A.84.84,0,0,0,296.35,80.41Z" style="fill:#fff"/><path d="M158.1,84.34c-.94-.21-2.36-.51-3.44-.73L139.88,80.8A88,88,0,0,0,121.12,79c-40.41,1.15-55.51,35-55.49,60.09,0,21.49,12.22,33.78,33,33.19,10-.28,17.48-3.75,24-10.79,4.73-5,5.46-4.31,6.19,0l.73,5.76a2.23,2.23,0,0,0,2.55,2.09L145,169a2.37,2.37,0,0,0,2.55-2.24l8.73-50.15c.11-2-.59-6-7.83-5.8l-20,.57c-4.09,19.95-13,35.17-24.09,35.48-6.55.19-10.56-4-10.56-11.07,0-9,5.67-25.38,19.05-30a22.1,22.1,0,0,1,7-1.27l1.7,0c10.17,0,23.28,3.29,28.17.29s6.15-9.39,6.94-14c.31-1.78,1.12-4.26,1.85-5A.84.84,0,0,0,158.1,84.34Z" style="fill:#fff"/><path d="M206.82,45.27c-1.11.64-4.32.83-6.54.64-5.69-.48-14-1.22-18.8,3.93-2.86,3-4.85,13.35-6.59,24l-15.7,86.77,1.54,5.74a2.22,2.22,0,0,0,2.55,2.09l21.78-.62a2.37,2.37,0,0,0,2.55-2.24s21-118.47,21-119.2A1.27,1.27,0,0,0,206.82,45.27Z" style="fill:#fff"/><path d="M271.6,159l.27,2.11,10-.28,8.43-48.49a.94.94,0,0,0-.17-.62c-.06-.06-.61-.55-2.53-.62l-8.3,47.69Z" style="fill:url(#linear-gradient)"/><path d="M262.79,147.75c-2.54.07-4.61,1.77-7.56,4.89-5.82,6.26-12.27,9.16-20.93,9.4-7.41.21-13.46-1.35-18.08-4.49,4.84,4.52,11.77,6.79,20.64,6.54,8.66-.25,15.11-3.14,20.94-9.41,2.94-3.12,5-4.82,7.55-4.89a5.42,5.42,0,0,1,1.87.26A4.8,4.8,0,0,0,262.79,147.75Z" style="fill:url(#linear-gradient-2)"/><path d="M249.85,97.8a26.45,26.45,0,0,1,8.27-1.5c.47,0,1.66,0,1.83,0a117.14,117.14,0,0,1,11.83.84,88.46,88.46,0,0,0,10.45.7h0c2.59-.07,3.42-.51,3.56-.6,3.11-1.91,4.16-6.66,4.91-11a24.8,24.8,0,0,1,.6-2.52l-2.95-.56c-.1.47-.18.84-.21,1-.75,4.3-1.81,9.05-4.91,11-.14.09-1,.53-3.57.6h0a86.58,86.58,0,0,1-10.45-.71,117.29,117.29,0,0,0-11.83-.83l-1.83,0a26.34,26.34,0,0,0-8.27,1.51c-15.21,5.24-22,23.11-22,34.13,0,6,2.48,10.66,6.59,13.17a15.8,15.8,0,0,1-4-11.12C227.81,120.92,234.64,103.05,249.85,97.8Z" style="fill:url(#linear-gradient-3)"/><path d="M133.34,162.93l.27,2.1,10-.28L152,116.27a1.08,1.08,0,0,0-.17-.63c-.06-.06-.61-.55-2.53-.61L141,162.71Z" style="fill:url(#linear-gradient-4)"/><path d="M124.53,151.68c-2.53.07-4.61,1.77-7.55,4.89-5.83,6.27-12.28,9.16-20.94,9.4-7.41.22-13.45-1.34-18.08-4.49C82.81,166,89.74,168.27,98.6,168c8.67-.24,15.12-3.14,20.94-9.41,2.94-3.11,5-4.82,7.55-4.89A5.68,5.68,0,0,1,129,154,4.81,4.81,0,0,0,124.53,151.68Z" style="fill:url(#linear-gradient-5)"/><path d="M149.9,88.14c-.75,4.3-1.81,9-4.91,11-.15.09-1,.53-3.57.6h0A88.75,88.75,0,0,1,131,99a117.14,117.14,0,0,0-11.83-.84c-.17,0-1.35,0-1.83,0a26.22,26.22,0,0,0-8.27,1.5c-15.21,5.25-22,23.12-22,34.13,0,6,2.47,10.66,6.59,13.17a15.67,15.67,0,0,1-4-11.12c0-11,6.82-28.89,22-34.14a26.8,26.8,0,0,1,8.27-1.5c.48,0,1.66,0,1.84,0a117.5,117.5,0,0,1,11.83.83,86.58,86.58,0,0,0,10.45.71h0a8.19,8.19,0,0,0,3.57-.6c3.1-1.91,4.16-6.67,4.91-11a22.24,22.24,0,0,1,.6-2.52l-2.95-.56C150,87.57,149.93,88,149.9,88.14Z" style="fill:url(#linear-gradient-6)"/><path d="M200.74,50.2c-3.36,19.23-13.66,77.38-19.68,111.32l-17,.49.56,2.1,19-.54c6.25-35.25,17.11-96.62,20-113.39l-.93,0C202.07,50.24,201.41,50.23,200.74,50.2Z" style="fill:url(#linear-gradient-7)"/><path d="M154.12,71.36c-1-.38-3.39-1.14-6.51-2l-2.69-.79c-3.51-1.15-6.47-2.05-9.31-2.81a87,87,0,0,0-9-2l-2.09-.4a44.78,44.78,0,0,0-5-.82,16.6,16.6,0,0,0-2,0c-.19-1-.92-4.34-2.85-6.07a2.42,2.42,0,0,0-2.39-.77,2.25,2.25,0,0,0-1.43,1.81,4.67,4.67,0,0,0-.13.89,2.11,2.11,0,0,0,0,.25,1.31,1.31,0,0,0,1.06,1,1.65,1.65,0,0,0,1.61-.57,1.43,1.43,0,0,0,.25-.51,11.19,11.19,0,0,1,1.7,4.27,3.62,3.62,0,0,0-.77.37c-1.25-.7-3.71-1.87-5.94-1.63a2.57,2.57,0,0,0-2.24,1.23,2.14,2.14,0,0,0,.32,2.24,4.75,4.75,0,0,0,.57.68l.2.14a1.23,1.23,0,0,0,.72.18,1.51,1.51,0,0,0,.78-.26,1.65,1.65,0,0,0,.71-1.55,1.37,1.37,0,0,0-.2-.52,10.82,10.82,0,0,1,4,1.4c-1.76,4.62,1.38,6.74,5.09,7,2.59.15,5.75-1.14,8.9-.7,9.25,1.32,22.83,4.92,24.37,5.21,4.88.94,10.24,2,9.65-.69C161.31,74.74,157.36,72.62,154.12,71.36Z" style="fill:url(#linear-gradient-8)"/><path d="M178.07,37.6a9.2,9.2,0,0,0-4.86-2.19,19.33,19.33,0,0,0-9.9,1.36,37.11,37.11,0,0,0-4.41,2c-1.33.7-2.75,1.46-4.17,2.3-2.82,1.67-5.58,3.45-8.21,5.29l-1.68,1.13c-3.87,2.62-11.09,7.48-14.08,11.08l-.14.2c-1,1.61-.73,2.71-.36,3.34a2.56,2.56,0,0,0,2.38,1.18,3.56,3.56,0,0,0,2.36-1c2.11-2.18,9.68-7.5,12.91-9.77l1-.67c2.48-1.75,5-3.41,7.62-4.94,1.25-.73,2.61-1.5,4.24-2.39a33.8,33.8,0,0,1,3.76-1.88A17.65,17.65,0,0,1,170,41.15a7.56,7.56,0,0,1,2.5.3,8.12,8.12,0,0,1,1.65.72,10.18,10.18,0,0,1-2.21,1.9l-.27.19c-.52.38-1.09.73-1.76,1.15l-.68.4c-.47.27-1,.56-1.43.89a11.32,11.32,0,0,0-3.59,4,6.94,6.94,0,0,0-.42,5.59,5.28,5.28,0,0,0,1.92,2.46,3.32,3.32,0,0,1,.64.6,11.7,11.7,0,0,1-1.34.31c-1.36.25-2.94.52-4.48.67-3,.3-5.32.44-7.44.44a2.71,2.71,0,0,0-.26,2.49A5.16,5.16,0,0,0,157,66.65a62,62,0,0,0,9-1.16l.48-.1a7.69,7.69,0,0,0,4.5-2.07,5.51,5.51,0,0,0,1.32-5.6,5.87,5.87,0,0,0-1.72-2.33,5.91,5.91,0,0,1-1.14-1.33,1,1,0,0,1-.05-.84,3.73,3.73,0,0,1,.87-1,17,17,0,0,1,2.56-1.89l.88-.59c.34-.23.69-.45,1-.67a24.3,24.3,0,0,0,3-2.19,6.73,6.73,0,0,0,2.29-4l0-.2A6.65,6.65,0,0,0,178.07,37.6Z" style="fill:url(#linear-gradient-9)"/><path d="M122.07,58.47a2,2,0,0,0,2,1.43h0a3.33,3.33,0,0,0,2.24-1.27c.29-.31,1.72-1.89,1.69-3,0-1.42-.08-3,0-4.5a60.63,60.63,0,0,1,.87-9,52.11,52.11,0,0,1,2.37-8.66,30.52,30.52,0,0,1,4-7.84c.38-.52,1.42-1.91,2.37-2h.11a1.58,1.58,0,0,1,1.51,1.08,5.58,5.58,0,0,1,0,3.38c-.14.46-.3.91-.46,1.36a18.84,18.84,0,0,0-.92,3.19c-.18,1.05-.43,3.71,1.2,5.47a4.76,4.76,0,0,0,1.08.93,5.5,5.5,0,0,0,.77.38l.28.13c.53.26.58.42.58.42a4.53,4.53,0,0,1,0,1.52l-.13,2.15c.06.56.23,1.27.67,1a24.79,24.79,0,0,1,3.26-2c.83-.43,1.52-.8,2.11-1.14a2.16,2.16,0,0,0,.16-.63,8.24,8.24,0,0,0-.22-2.72,5,5,0,0,0-1.7-2.61,7.84,7.84,0,0,0-1-.66,4,4,0,0,1-.71-.46c-.58-.52-.4-1.5-.15-2.24.12-.33.28-.66.43-1s.33-.71.47-1.07a10.88,10.88,0,0,0,.62-2.59,10.6,10.6,0,0,0-.7-5.19,7.92,7.92,0,0,0-3.52-4.05,7.11,7.11,0,0,0-5.53-.15c-2.84.93-5.33,3.28-7.4,7a47.58,47.58,0,0,0-3.74,8.85,57.55,57.55,0,0,0-2.14,9.29c-.08.58-.15,1.17-.23,1.77a83.74,83.74,0,0,0-.44,9.56c0,1.21.09,2.44.17,3.53Z" style="fill:url(#linear-gradient-10)"/><path d="M57.79,209.6,56.67,212a.44.44,0,0,1-.4.27l-4,.19c-.3,0-.39-.14-.29-.4l5.17-10.76c1.4-2.9,2.64-5.66,3.71-8.49a.39.39,0,0,1,.4-.3l5.11-.25a.35.35,0,0,1,.4.34,70.31,70.31,0,0,0,1.55,8.15l2.52,10.42a.28.28,0,0,1-.28.4l-3.71.18a.35.35,0,0,1-.4-.31l-.55-2.23Zm6.89-5.31a47.87,47.87,0,0,1-1.11-6.5c0-.33-.4-.31-.52,0a66.35,66.35,0,0,1-2.84,6.69l-.52,1.13,5.27-.26Z" style="fill:#fff"/><path d="M83.65,200.69a.34.34,0,0,1-.36.35c-3.05.25-4.18,2-4.91,7.58l-.28,2.27a.34.34,0,0,1-.37.34l-3.65.17c-.24,0-.36-.12-.34-.37l1.63-12.87a.34.34,0,0,1,.36-.35l1.93-.08a.44.44,0,0,1,.45.25l.57,1.05c.18.32.29.42.66.05a6.2,6.2,0,0,1,4.37-1.94c.27,0,.39.12.35.37Z" style="fill:#fff"/><path d="M95.91,196.88c.25,0,.36.12.35.37l-.41,3.13a.35.35,0,0,1-.37.35l-3.1.14-.68,5c-.1.72.11,1.12.58,1.1a1.9,1.9,0,0,0,.7-.14c.25-.13.39-.05.48.17l.94,2.62a.37.37,0,0,1-.17.48,5.69,5.69,0,0,1-2.47.75c-3.18.14-4.83-1.63-4.42-4.78l.65-5-1.38.06c-.24,0-.36-.12-.34-.37l.38-3.12a.34.34,0,0,1,.36-.35l1.46-.07.38-3a.41.41,0,0,1,.32-.37L93,192.39c.27-.09.44,0,.4.32L92.84,197Z" style="fill:#fff"/><path d="M99.08,210.25c-.25,0-.36-.12-.35-.37l1.23-9.35-1.37.06c-.25,0-.37-.12-.35-.37l.38-3.13a.34.34,0,0,1,.37-.34l5.44-.25c.25,0,.36.12.35.37l-1.68,12.87a.35.35,0,0,1-.37.35Zm5.12-15.77a.45.45,0,0,1-.43.23l-2.69.12c-.28,0-.39-.14-.29-.39l1.66-4.09a.38.38,0,0,1,.39-.3l3.79-.17c.28,0,.4.17.24.43Z" style="fill:#fff"/><path d="M115.55,209.53a8.16,8.16,0,0,1-2.32.4c-3.92.17-6.1-1.88-6.25-5.34-.16-3.68,1.66-8.57,7.64-8.83a7.7,7.7,0,0,1,2.27.26l1.59.39c.25.07.34.24.24.46l-1.28,2.95a.36.36,0,0,1-.46.23l-1-.25a5.26,5.26,0,0,0-1.33-.17c-2.8.13-3.49,3-3.43,4.55a1.76,1.76,0,0,0,2,1.9,6.8,6.8,0,0,0,1.85-.39l1.22-.35a.31.31,0,0,1,.43.28l.52,3a.36.36,0,0,1-.29.43Z" style="fill:#fff"/><path d="M129.72,208.08c-.24-.43-.43-.33-.94.07a5.83,5.83,0,0,1-3.28,1.24c-3.35.15-5-1.82-4.53-5.06l1.07-8.28a.34.34,0,0,1,.37-.34l3.69-.16c.24,0,.36.12.34.37l-1.06,8c-.17,1.14.23,1.59,1.06,1.55,1.45-.06,2.48-1.23,2.73-3.09l.87-6.67a.35.35,0,0,1,.37-.35l3.66-.15c.24,0,.36.12.34.37l-1.68,12.87a.35.35,0,0,1-.37.35l-1.92.08a.44.44,0,0,1-.45-.26Z" style="fill:#fff"/><path d="M141.16,204.36c0,.31.05.52.33.51h.16c.25-.07.39,0,.45.23l.72,2.8a.33.33,0,0,1-.2.45,4.69,4.69,0,0,1-1.69.4c-2.94.12-4.52-1.44-4.14-4.21l2.11-15.72a.34.34,0,0,1,.37-.34l3.65-.15c.25,0,.37.12.35.37Z" style="fill:#fff"/><path d="M158.87,199.52c.14,3.52-1.73,8.58-7.44,8.8-3.74.15-6-1.91-6.11-5.37s1.78-8.57,7.47-8.8C156.5,194,158.73,196.06,158.87,199.52Zm-9.3,3c.05,1.32.72,2,1.84,2,2.42-.09,3.27-2.88,3.21-4.47-.05-1.32-.69-2-1.81-2C150.31,198.13,149.51,200.94,149.57,202.48Z" style="fill:#fff"/><path d="M165.44,202c-2.2-.47-3.28-1.42-3.34-3.12-.09-2.48,1.41-5.12,5.72-5.28a16.77,16.77,0,0,1,3.7.36l1.39.31c.25.05.34.21.24.43l-1.22,2.91a.38.38,0,0,1-.46.24l-1.25-.29a12.16,12.16,0,0,0-2.4-.24c-1,0-1.55.36-1.53.88,0,.22.18.43.57.53l2.27.47c2.19.47,3.33,1.5,3.39,3.31.09,2.25-1.16,5.08-5.69,5.25a17.34,17.34,0,0,1-4.28-.37l-1.47-.31c-.25-.07-.34-.23-.24-.46l1.28-2.82a.33.33,0,0,1,.43-.23l1.08.23a16.35,16.35,0,0,0,3.2.27c1,0,1.56-.39,1.53-1,0-.3-.13-.52-.68-.61Z" style="fill:#fff"/><path d="M194,206.21a.35.35,0,0,1-.37.34l-1.87,0a.45.45,0,0,1-.45-.26l-.26-.51c-.18-.38-.26-.49-.86,0a5.37,5.37,0,0,1-3.37,1.23c-3.3.1-5.23-1.94-5.32-5.32-.11-3.6,1.75-8.69,7.3-8.85a4.8,4.8,0,0,1,2.05.3l.66.29,1-6.58a.34.34,0,0,1,.37-.34l3.66-.11c.24,0,.36.13.34.38ZM190.53,197a4.29,4.29,0,0,0-1.44-.21c-2.53.08-3.38,2.88-3.34,4.45,0,1.29.69,2,1.9,2a2.93,2.93,0,0,0,2.89-2.75l.48-3.28Z" style="fill:#fff"/><path d="M206.56,206.37a10.39,10.39,0,0,1-2.53.34c-3.93,0-6-2.11-6-5.55,0-3.69,2-8.53,7.69-8.56,3.16,0,5,1.52,5,4,0,2.12-.75,3.94-4.87,4.48l-3.69.48c.09.74.64,1.43,2,1.42a9.78,9.78,0,0,0,2.23-.26l1.59-.36c.25-.06.39.05.42.3l.28,2.86a.34.34,0,0,1-.3.41Zm-1.08-8c.82-.15,1.18-.59,1.17-1.14s-.33-.93-1.16-.93c-1.32,0-2.44.65-3.12,2.46Z" style="fill:#fff"/><path d="M223.3,202.32c-.06.3,0,.52.3.52h.17a.32.32,0,0,1,.44.25l.6,2.84a.32.32,0,0,1-.22.43,4.76,4.76,0,0,1-1.71.33c-2.94,0-4.45-1.62-3.95-4.37l2.76-15.62a.34.34,0,0,1,.38-.33h3.66c.25,0,.36.13.33.38Z" style="fill:#fff"/><path d="M232.54,206.07a.35.35,0,0,1-.39.33H228.5c-.25,0-.36-.14-.33-.39l1.66-9.29h-1.37c-.25,0-.36-.14-.33-.39l.53-3.1a.34.34,0,0,1,.38-.33h5.44c.25,0,.36.14.33.39Zm3-17.78c0,1.81-1,2.86-2.61,2.85a2.06,2.06,0,0,1-2.28-2.23,2.47,2.47,0,0,1,2.62-2.8A2,2,0,0,1,235.56,188.29Z" style="fill:#fff"/><path d="M241.37,193.64c.3.58.41.5,1,.06a5.07,5.07,0,0,1,3.16-1.06,4.14,4.14,0,0,1,2.86,1.08c.63.55.91.69,1.68.08a5.1,5.1,0,0,1,3.22-1.14c3.19,0,4.83,2.05,4.24,5.27l-1.48,8.21a.34.34,0,0,1-.38.33H252c-.25,0-.36-.14-.33-.39l1.43-7.94c.19-1.13,0-1.59-.91-1.6-1.4,0-2.42,1.12-2.76,3l-1.17,6.62a.35.35,0,0,1-.39.33h-3.65c-.25,0-.36-.14-.33-.39l1.42-8c.2-1.07-.05-1.54-.9-1.54-1.46,0-2.39,1.12-2.73,3l-1.17,6.62a.35.35,0,0,1-.39.33h-3.66a.3.3,0,0,1-.33-.38l2.27-12.78a.35.35,0,0,1,.39-.33h1.92a.39.39,0,0,1,.41.28Z" style="fill:#fff"/><path d="M264.78,193.74c.24.5.32.52,1,.06a5.44,5.44,0,0,1,3.33-1.09c3.3,0,5.16,2.11,5.15,5.5,0,3.6-2,8.62-7.6,8.6a4.53,4.53,0,0,1-2-.36l-.63-.31-1.1,6.05a.34.34,0,0,1-.38.33l-3.66,0c-.25,0-.36-.14-.33-.39l3.37-18.79a.35.35,0,0,1,.39-.33h1.9a.38.38,0,0,1,.41.28Zm.29,8.94a3.8,3.8,0,0,0,1.4.28c2.56,0,3.48-2.76,3.48-4.36,0-1.29-.59-2-1.86-2a3,3,0,0,0-3,2.68l-.56,3.22Z" style="fill:#fff"/><path d="M281.33,206.23a.35.35,0,0,1-.39.33h-3.66c-.25,0-.35-.14-.33-.39l1.69-9.29h-1.38c-.24,0-.35-.14-.32-.39l.53-3.1a.35.35,0,0,1,.39-.33l5.44,0a.3.3,0,0,1,.33.38Zm3.06-17.78c0,1.82-1,2.86-2.62,2.86a2.08,2.08,0,0,1-2.28-2.24c0-1.82,1-2.8,2.63-2.8A2,2,0,0,1,284.39,188.45Z" style="fill:#fff"/><path d="M294,206.59a10.89,10.89,0,0,1-2.54.32c-3.93,0-6-2.17-6-5.61,0-3.68,2.08-8.51,7.77-8.49,3.16,0,5,1.57,5,4.07,0,2.12-.79,3.93-4.92,4.43l-3.69.45c.08.74.63,1.43,2,1.44a10.36,10.36,0,0,0,2.23-.24l1.6-.35a.31.31,0,0,1,.41.3l.26,2.87a.35.35,0,0,1-.31.41Zm-1-8c.82-.14,1.18-.58,1.18-1.13s-.32-.93-1.15-.94a3.21,3.21,0,0,0-3.14,2.44Z" style="fill:#fff"/><path d="M312.92,193.86c-.61.77-1.11,1.43-1.83,2.47l-2.9,4.3a14,14,0,0,1-1.66,2c-.17.16-.17.3.08.3h4.29c.3,0,.38.19.24.44l-1.71,3.1a.43.43,0,0,1-.42.24l-9.4,0a.4.4,0,0,1-.41-.27.46.46,0,0,1,.11-.39c.69-.82,1.24-1.56,2-2.55l2.85-4.19a10,10,0,0,1,1.66-2c.2-.19.2-.3-.08-.3h-4.18c-.25,0-.35-.14-.33-.39l.57-3.1a.35.35,0,0,1,.39-.33l10.47,0c.22,0,.33.05.41.22A.38.38,0,0,1,312.92,193.86Z" style="fill:#fff"/><path d="M323.51,205.72c-.09-.66-.2-.77-.94-.05a4.65,4.65,0,0,1-3.67,1.42c-3.14-.11-4.91-2.09-4.81-5.36.13-3.82,2.58-8.83,8.68-8.63a14.18,14.18,0,0,1,2.82.45l3,.76c.22.06.29.2.26.45l-2.51,11.94a.36.36,0,0,1-.4.32l-2-.07a.34.34,0,0,1-.37-.34Zm0-8.58a3.58,3.58,0,0,0-1-.17c-2.78-.09-4,2.92-4.09,4.52a1.54,1.54,0,0,0,1.54,1.78c1.71.06,3.09-1.91,3.8-5l.22-1Z" style="fill:#fff"/></g></svg>