<svg id="Capa_1" data-name="Capa 1" xmlns="http://www.w3.org/2000/svg" viewBox="0 0 380 203.28"><title>LOGO ALA</title><g id="LOGO_PLANO" data-name="LOGO PLANO"><path d="M370.08,163.55c-8.21-11.13-17-21.81-25.57-32.68-1.89-2.4-6.45-6.67-5.41-10.19,1.52-5.1,7-9.61,10.43-13.5C357.1,98.52,366,88.69,369,77.27a16.16,16.16,0,0,0-.43-10.74,11.71,11.71,0,0,0-4.94-5.47c-.81-.45-6.28-1.81-3-1.18-6.72-1.29-14-.79-20.83-1q-14.94-.36-29.89-.6-37.33-.6-74.69-.43c1.67-9.79,1.09-19.34-7.84-25.79a22.16,22.16,0,0,0-15.33-4,58.43,58.43,0,0,1-8.88.36c-3.3-.11-5.4-3.76-8.23-5.61a32.34,32.34,0,0,0-17.65-5c-2.46,0-6.62,1.63-7.6-.67a29.34,29.34,0,0,0-5.88-9c-8.68-9-22.21-10.49-33.18-4.95C119,9.12,112.7,21.37,109.22,33.41c-.85,2.94-.77,7.06-3.36,8.7A23.61,23.61,0,0,0,99.51,48c-1.72,2.31-3.64,4.48-5.28,6.85a22.38,22.38,0,0,0-2.63,5c-1.13,3.06-2.13,2.16-5.24,2.32q-21.81,1.09-43.62,2.41c-10,.6-21.75-.32-31.36,2.47.43-.1.86-.21,1.28-.33C-1.73,69.71,3.42,86,8.9,94.29c4.4,6.63,9.87,12.51,15.43,18.16,3.64,3.69,11.93,9.29,12.75,14.76.72,4.73-5.75,11.11-8.26,14.56C23.55,149,18.15,156.17,13,163.52S.58,179.77,0,189c-.81,13.59,15.14,14.27,24.87,14.27,14.84,0,29.79-1.63,44.61-2.44,36.44-2,72.9-3.56,109.39-4.41,94.76-2.22,177.64,2.08,192.14-2.05,4.61-1.31,8.28-4.71,8.49-9.81,2.51-7.2-5.64-15.86-9.45-21Z" style="fill:#00953b"/><path d="M333.3,130c-11.68-15.06-.92-19.36,14.75-39.34s11.37-25.81,7.07-26.12c-.21,0-.15,0,.15-.06-28.68-.86-76.66-1.91-132.14-1.48,2.56-14.61,2.58-15.05,2.6-15.65a13.88,13.88,0,0,0-4-10.26A14.15,14.15,0,0,0,211.31,33a14.84,14.84,0,0,0-4.52.86h-.2a10.32,10.32,0,0,1-1.15,0,74.37,74.37,0,0,0-8.68-.36c-.83,0-1.63.09-2.43.16a19.67,19.67,0,0,0-3.54-4.7A21.73,21.73,0,0,0,179,23.25a28.33,28.33,0,0,0-5.32-.35,36,36,0,0,0-11.62,2.42l-.62.25a22.84,22.84,0,0,0-1.75-8.13,20.46,20.46,0,0,0-9.34-10.37A19.07,19.07,0,0,0,141,5a22.49,22.49,0,0,0-6.44,1.16c-4.27,1.4-10.37,4.86-15.15,13.35A61.24,61.24,0,0,0,114.5,31a72.35,72.35,0,0,0-2.66,11.62c-.07.49-.13,1-.2,1.46-.32.09-.65.14-1,.25a15.6,15.6,0,0,0-9.5,8.77,15.11,15.11,0,0,0-4.44,5.39,14.67,14.67,0,0,0-1.42,8.15c-34.67,1.65-64.59,3.51-83.87,4.8.5,0,.65,0,.39.07-4.3.59-8.23,6.72,8.78,25.73s28.06,22.62,17.33,38.47S3.81,179.78,5.1,187.66c.4,2.46,1.08,5.44,20.85,5,19.51-1.25,45.3-2.75,74.12-4.09h.42c.63,0,1.24-.06,1.85-.1,29.59-1.35,62.25-2.52,94.54-3,48.3-.78,92.6-.33,125.91.35a77.38,77.38,0,0,1,8.67-.17c45.18.62,36-3.07,37.8-6.14S345,145.05,333.3,130Z" style="fill:#76bc21"/><path d="M314,75.64c13.22.24,24.77.52,34.07.78a2.76,2.76,0,1,0,.15-5.52c-10.83-.3-24.68-.63-40.69-.89A13.47,13.47,0,0,1,314,75.64Z" style="fill:#fde021"/><path d="M16.68,80.53a2.76,2.76,0,0,0,2.75,2.58h.18c16.09-1,39-2.44,65.55-3.77A65.9,65.9,0,0,1,96.3,73.25c-31.41,1.49-58.67,3.14-77,4.34A2.76,2.76,0,0,0,16.68,80.53Z" style="fill:#fde021"/><path d="M221,75.16l5.35,0a66.69,66.69,0,0,1,10.12-5.58q-7.29,0-14.5.09C221.67,71.33,221.34,73.18,221,75.16Z" style="fill:#fde021"/><path d="M25.43,180.5c-3.64.08-6.62,0-9-.13a2.77,2.77,0,0,0-.38,5.52c1.72.11,3.76.17,6.06.17,1.08,0,2.23,0,3.46,0h.12c14.42-.92,31.28-1.92,49.7-2.89A39.21,39.21,0,0,1,68.06,178C52.39,178.84,38,179.7,25.43,180.5Z" style="fill:#fde021"/><path d="M203.47,173.18a15.91,15.91,0,0,1-3.25,5.57q7.47-.12,15.08-.19a39,39,0,0,1-7.27-5.44Z" style="fill:#fde021"/><path d="M356.82,173.13c-4,.26-9.45.4-16.14.4-2.74,0-5.75,0-9.05-.07-4.59-.07-7.41,0-9.33.15q-10-.2-20-.34a15.49,15.49,0,0,1-5.25,5.45q12.66.18,25.32.42h.31c1.69-.16,4.47-.21,8.91-.14q5,.06,9.13.06c6.81,0,12.37-.14,16.5-.41a2.76,2.76,0,1,0-.36-5.51Z" style="fill:#fde021"/><path d="M157.06,72.72c-1-.38-3.46-1.16-6.63-2.07-1.22-.35-2.26-.65-2.74-.81-3.58-1.17-6.6-2.08-9.49-2.86A90.51,90.51,0,0,0,129,64.92c-.5-.08-1.27-.23-2.13-.4a46.62,46.62,0,0,0-5.06-.84,19.72,19.72,0,0,0-2,0c-.19-1.07-.94-4.42-2.91-6.19a2.49,2.49,0,0,0-2.43-.78A2.31,2.31,0,0,0,113,58.53a5,5,0,0,0-.13.91,2.28,2.28,0,0,0,0,.26,1.33,1.33,0,0,0,1.08,1,1.69,1.69,0,0,0,1.64-.58,1.25,1.25,0,0,0,.25-.52A11.1,11.1,0,0,1,117.59,64a3.12,3.12,0,0,0-.78.38c-1.28-.72-3.79-1.91-6.06-1.66A2.65,2.65,0,0,0,108.46,64a2.2,2.2,0,0,0,.34,2.29,4.86,4.86,0,0,0,.58.69.75.75,0,0,0,.2.15,1.26,1.26,0,0,0,.73.18,1.5,1.5,0,0,0,.8-.27,1.65,1.65,0,0,0,.72-1.57,1.23,1.23,0,0,0-.21-.53,10.94,10.94,0,0,1,4.08,1.42c-1.79,4.71,1.41,6.88,5.19,7.1,2.64.15,5.86-1.17,9.07-.72,9.43,1.35,23.26,5,24.84,5.31,5,1,10.43,2.06,9.83-.71C164.38,76.17,160.36,74,157.06,72.72Z" style="fill:#fde021"/><path d="M176.52,36.09a19.78,19.78,0,0,0-10.1,1.38,37.73,37.73,0,0,0-4.49,2c-1.35.71-2.8,1.49-4.25,2.35-2.87,1.7-5.69,3.51-8.37,5.39l-1.71,1.15C143.65,51,136.3,56,133.26,59.64l-.15.22c-1,1.63-.75,2.75-.37,3.39a2.58,2.58,0,0,0,2.43,1.2,3.58,3.58,0,0,0,2.4-1c2.16-2.23,9.86-7.65,13.16-10l1-.68c2.52-1.79,5.14-3.48,7.77-5,1.27-.75,2.66-1.54,4.31-2.45a35.16,35.16,0,0,1,3.84-1.91,17.93,17.93,0,0,1,5.57-1.44,7.64,7.64,0,0,1,2.55.3,8.39,8.39,0,0,1,1.68.73,10.3,10.3,0,0,1-2.25,1.94l-.28.2c-.53.39-1.11.74-1.79,1.16l-.69.41c-.48.28-1,.57-1.47.91a11.61,11.61,0,0,0-3.65,4,7.08,7.08,0,0,0-.43,5.7,5.5,5.5,0,0,0,2,2.51,3.43,3.43,0,0,1,.65.61,11.08,11.08,0,0,1-1.37.32c-1.38.25-3,.53-4.56.69-3.08.3-5.42.44-7.58.44a2.72,2.72,0,0,0-.26,2.54A5.22,5.22,0,0,0,160,67.92a62.46,62.46,0,0,0,9.14-1.18l.49-.1a7.86,7.86,0,0,0,4.59-2.11,5.62,5.62,0,0,0,1.35-5.71,6.32,6.32,0,0,0-1.75-2.38,5.71,5.71,0,0,1-1.17-1.35.94.94,0,0,1-.05-.86,4.2,4.2,0,0,1,.88-1,17.64,17.64,0,0,1,2.61-1.92l.9-.6L178.1,50a24.85,24.85,0,0,0,3.09-2.23,6.9,6.9,0,0,0,2.34-4l0-.2a6.86,6.86,0,0,0-2.09-5.22A9.18,9.18,0,0,0,176.52,36.09Z" style="fill:#fde021"/><path d="M124.39,59.58a2,2,0,0,0,2,1.46h0a3.38,3.38,0,0,0,2.29-1.29c.29-.31,1.75-1.93,1.71-3.08,0-1.45-.07-3,0-4.58a61.57,61.57,0,0,1,.89-9.14,52.35,52.35,0,0,1,2.41-8.82,31.36,31.36,0,0,1,4.12-8c.39-.53,1.44-1.95,2.41-2.07h.11a1.6,1.6,0,0,1,1.54,1.11,5.62,5.62,0,0,1,0,3.44c-.14.47-.31.92-.47,1.38a19.55,19.55,0,0,0-.93,3.25c-.19,1.08-.44,3.78,1.22,5.58a5,5,0,0,0,1.1,1,6.23,6.23,0,0,0,.78.38l.29.14c.54.26.59.42.59.42a5,5,0,0,1,0,1.56l-.14,2.18c.06.58.23,1.3.68,1a23.23,23.23,0,0,1,3.33-2c.84-.44,1.54-.83,2.14-1.17a2.18,2.18,0,0,0,.17-.64,8.57,8.57,0,0,0-.23-2.77,5.09,5.09,0,0,0-1.73-2.66,6.63,6.63,0,0,0-1-.67,4.74,4.74,0,0,1-.72-.47c-.6-.53-.41-1.53-.15-2.28.12-.34.28-.68.43-1s.34-.73.48-1.09a10.48,10.48,0,0,0,.63-2.64,10.75,10.75,0,0,0-.71-5.29A8.08,8.08,0,0,0,144,18.62a7.28,7.28,0,0,0-5.65-.15c-2.88,1-5.42,3.34-7.54,7.1a48.17,48.17,0,0,0-3.8,9,57.66,57.66,0,0,0-2.18,9.47c-.09.59-.16,1.18-.24,1.8a86.79,86.79,0,0,0-.45,9.74c0,1.24.09,2.49.17,3.59Z" style="fill:#fde021"/><path d="M309.9,84a6.46,6.46,0,0,0-4.74-4.41l-2.81-.6L286.41,76A96.14,96.14,0,0,0,266.15,74c-30.85.88-49.5,19.12-57.41,41C220,51.32,220,50.8,220.06,50.42a6.71,6.71,0,0,0-1.89-4.82,6.82,6.82,0,0,0-4.85-2.09,6.54,6.54,0,0,0-2.92.69,13.55,13.55,0,0,1-2.53.19c-.47,0-.94,0-1.47-.06-2-.16-4.19-.35-6.61-.35-7.5,0-13,2-16.85,6.07s-5.78,13-8.11,27.19l-8.12,44.88v0a10.55,10.55,0,0,0-2.78-8,10.7,10.7,0,0,0-3.26-2.33c4.52-4.74,5.7-11.51,6.36-15.3a13.28,13.28,0,0,1,.75-2.6A6.27,6.27,0,0,0,169,88a6.5,6.5,0,0,0-4.75-4.41L161,82.92l-15.48-3A95.45,95.45,0,0,0,125.26,78c-42.53,1.2-61.88,35.42-61.86,66.69,0,24.61,14.07,39.3,37.62,39.3.52,0,1,0,1.6,0,10.4-.29,18.7-3.59,25.91-10.32l.06.42a7.7,7.7,0,0,0,7.95,6.91l13.39-.38a7.84,7.84,0,0,0,7.82-6.8l1.08-6.2,1.59,5.91a7.6,7.6,0,0,0,7.83,6.52h0l22.44-.64a7.83,7.83,0,0,0,7.81-6.78c2.12-12,4-22.77,5.76-32.51,0,.2,0,.39,0,.58,0,24.61,14.08,39.31,37.62,39.31l1.6,0c10.41-.3,18.7-3.59,25.91-10.33l.06.43a7.69,7.69,0,0,0,7.95,6.9l13.39-.38a7.83,7.83,0,0,0,7.82-6.8l8.93-51.3,0-.45a10.54,10.54,0,0,0-2.79-8,10.78,10.78,0,0,0-3.25-2.33c4.51-4.74,5.69-11.52,6.35-15.31a13.5,13.5,0,0,1,.75-2.6A6.25,6.25,0,0,0,309.9,84Z" style="fill:#ee7203"/><path d="M302,81.94c-.95-.21-2.4-.52-3.5-.74l-15.06-2.87a90.91,90.91,0,0,0-19.11-1.84c-41.19,1.17-56.58,35.65-56.56,61.23,0,21.9,12.45,34.43,33.61,33.84,10.2-.29,17.8-3.83,24.48-11,4.82-5.11,5.57-4.39,6.31,0l.74,5.87a2.28,2.28,0,0,0,2.6,2.14l13.18-.38a2.42,2.42,0,0,0,2.6-2.28l8.89-51.12c.11-2.08-.6-6.12-8-5.91l-20.37.58c-4.16,20.33-13.23,35.85-24.54,36.17-6.68.19-10.77-4.11-10.77-11.29,0-9.21,5.78-25.87,19.41-30.57a22.33,22.33,0,0,1,7.1-1.29l1.74,0c10.36,0,23.73,3.36,28.7.3s6.27-9.57,7.08-14.22c.32-1.82,1.14-4.35,1.88-5.11A.86.86,0,0,0,302,81.94Z" style="fill:#fff"/><path d="M161.11,86l-3.5-.75-15.06-2.86a91.16,91.16,0,0,0-19.12-1.85c-41.19,1.17-56.57,35.66-56.55,61.24,0,21.9,12.45,34.43,33.6,33.83,10.21-.29,17.81-3.82,24.49-11,4.82-5.11,5.56-4.39,6.31,0l.74,5.87a2.28,2.28,0,0,0,2.6,2.14l13.17-.38a2.42,2.42,0,0,0,2.6-2.28l8.9-51.12c.11-2.08-.6-6.12-8-5.91l-20.36.58c-4.16,20.33-13.23,35.84-24.55,36.16-6.68.2-10.76-4.11-10.77-11.28,0-9.21,5.78-25.87,19.42-30.57a22.21,22.21,0,0,1,7.1-1.29l1.74,0c10.36,0,23.72,3.36,28.7.29s6.27-9.56,7.08-14.22c.31-1.81,1.13-4.34,1.88-5.1A.86.86,0,0,0,161.11,86Z" style="fill:#fff"/><path d="M210.77,46.14c-1.14.65-4.41.83-6.67.65-5.8-.49-14.23-1.25-19.16,4C182,53.89,180,64.39,178.22,75.21l-16,88.42,1.56,5.85a2.26,2.26,0,0,0,2.6,2.13l22.2-.63a2.42,2.42,0,0,0,2.6-2.28S212.59,48,212.63,47.22A1.29,1.29,0,0,0,210.77,46.14Z" style="fill:#fff"/><path d="M276.78,162l.27,2.14,10.17-.28,8.6-49.42a1.1,1.1,0,0,0-.17-.63c-.07-.06-.63-.56-2.58-.63l-8.46,48.59Z" style="fill:#fde021"/><path d="M267.8,150.57c-2.59.07-4.7,1.8-7.7,5-5.94,6.38-12.51,9.33-21.34,9.58-7.54.22-13.71-1.37-18.42-4.58,4.94,4.61,12,6.92,21,6.67,8.83-.26,15.4-3.21,21.34-9.59,3-3.17,5.11-4.91,7.7-5a5.6,5.6,0,0,1,1.9.26A4.86,4.86,0,0,0,267.8,150.57Z" style="fill:#fde021"/><path d="M254.61,99.67A27,27,0,0,1,263,98.14c.49,0,1.69,0,1.87,0A118.76,118.76,0,0,1,277,99a90.29,90.29,0,0,0,10.66.72h0c2.64-.07,3.49-.52,3.63-.61,3.16-1.95,4.24-6.79,5-11.17a21.8,21.8,0,0,1,.61-2.58l-3-.57c-.11.49-.18.87-.21,1.07-.77,4.38-1.85,9.22-5,11.17-.14.09-1,.53-3.63.61h0a90.29,90.29,0,0,1-10.66-.72A118.76,118.76,0,0,0,262.3,96c-.18,0-1.38,0-1.87,0A26.67,26.67,0,0,0,252,97.59c-15.5,5.34-22.46,23.55-22.45,34.78,0,6.12,2.52,10.87,6.71,13.42a16,16,0,0,1-4.1-11.34C232.15,123.23,239.11,105,254.61,99.67Z" style="fill:#fde021"/><path d="M135.88,166l.28,2.15,10.17-.29,8.6-49.41a1,1,0,0,0-.18-.63c-.06-.06-.62-.56-2.58-.63l-8.45,48.59Z" style="fill:#fde021"/><path d="M126.91,154.57c-2.59.07-4.7,1.81-7.7,5-5.94,6.38-12.51,9.33-21.34,9.58-7.55.22-13.71-1.37-18.42-4.58,4.93,4.61,12,6.92,21,6.66,8.83-.24,15.4-3.19,21.34-9.58,3-3.18,5.11-4.91,7.7-5a5.59,5.59,0,0,1,1.9.27A4.9,4.9,0,0,0,126.91,154.57Z" style="fill:#fde021"/><path d="M152.75,89.82c-.76,4.38-1.84,9.23-5,11.17-.14.1-1,.54-3.63.62h0a90.27,90.27,0,0,1-10.65-.72c-4-.42-8.17-.85-12.06-.86l-1.86,0a27,27,0,0,0-8.43,1.53c-15.5,5.35-22.46,23.56-22.45,34.79,0,6.11,2.52,10.86,6.71,13.42a16,16,0,0,1-4.1-11.34c0-11.22,7-29.44,22.45-34.79a27,27,0,0,1,8.43-1.53c.48,0,1.69,0,1.86,0a119,119,0,0,1,12.06.85,90.27,90.27,0,0,0,10.65.72h0c2.64-.08,3.5-.52,3.64-.61,3.16-2,4.24-6.79,5-11.18.07-.36.26-1.37.61-2.57l-3-.57C152.86,89.25,152.79,89.63,152.75,89.82Z" style="fill:#fde021"/><path d="M204.57,51.16c-3.43,19.6-13.92,78.85-20,113.45l-17.35.49.58,2.14,19.38-.55c6.37-35.92,17.44-98.47,20.41-115.55l-.94,0C205.93,51.2,205.25,51.19,204.57,51.16Z" style="fill:#fde021"/></g></svg>